<svg width="50" height="51" viewBox="0 0 50 51" fill="none" xmlns="http://www.w3.org/2000/svg">
<g clip-path="url(#clip0_6_5)">
<path d="M16.564 25.8899L12.9402 29.5238H0.892578V21.6276H12.2769L16.564 25.8899ZM13.286 20.1133L5.27964 11.5548L10.8805 5.71046L19.5221 14.352L21.0459 15.8759V13.7208V1.67188H28.8433V13.576L17.8246 24.6257L13.286 20.1133ZM15.4614 29.5238L17.83 27.1486L20.219 29.5238H15.4614ZM22.7512 29.5238L19.0906 25.8845L28.8433 16.1044V29.5238H22.7512ZM13.6811 31.3091H22.0147L28.8433 38.0983V49.6772H21.0459V37.727V35.6365L19.5359 37.0822L10.885 45.365L5.30736 39.7065L13.6811 31.3091ZM36.9477 21.6276H49.0955V29.5238H36.9477H34.8089H30.6286V14.314L39.2118 5.70676L44.8817 11.5386L36.3165 20.1038L34.7927 21.6276H36.9477ZM30.6286 31.3091H36.5752L44.8763 39.6995L39.1999 45.3758L30.6286 37.3403V31.3091ZM28.8433 35.5808L24.5468 31.3091H28.8433V35.5808Z" stroke="url(#paint0_radial_6_5)" stroke-width="1.78529"/>
</g>
<defs>
<radialGradient id="paint0_radial_6_5" cx="0" cy="0" r="1" gradientUnits="userSpaceOnUse" gradientTransform="translate(23.2087 -5.00003) rotate(89.6359) scale(70.2418 70.5205)">
<stop stop-color="#F70F68"/>
<stop offset="0.35" stop-color="#FFA92E"/>
<stop offset="0.666278" stop-color="#64E8F0"/>
<stop offset="1" stop-color="#1FD1A2"/>
</radialGradient>
<clipPath id="clip0_6_5">
<rect width="50" height="51" fill="white"/>
</clipPath>
</defs>
</svg>
